<svg width="37" height="37" viewBox="0 0 37 37" fill="none" xmlns="http://www.w3.org/2000/svg">
<g clip-path="url(#clip0_6_1237)">
<path d="M12.1888 31.8359H5.27521C5.11198 31.8355 4.95555 31.7708 4.84014 31.6559C4.72472 31.541 4.6597 31.3852 4.6593 31.2228V5.46467C4.6597 5.30217 4.72472 5.14645 4.84014 5.03155C4.95555 4.91664 5.11198 4.85192 5.27521 4.85152H12.1888C12.7879 4.85152 13.3624 4.61461 13.786 4.19289C14.2097 3.77118 14.4476 3.19922 14.4476 2.60282C14.4476 2.00643 14.2097 1.43447 13.786 1.01275C13.3624 0.591042 12.7879 0.354126 12.1888 0.354126L5.27521 0.354126C3.91418 0.355713 2.60936 0.894653 1.64696 1.85272C0.684569 2.81079 0.143196 4.10975 0.141602 5.46467L0.141602 31.2228C0.143196 32.5777 0.684569 33.8766 1.64696 34.8347C2.60936 35.7928 3.91418 36.3317 5.27521 36.3333H12.1888C12.7879 36.3333 13.3624 36.0964 13.786 35.6747C14.2097 35.253 14.4476 34.681 14.4476 34.0846C14.4476 33.4882 14.2097 32.9162 13.786 32.4945C13.3624 32.0728 12.7879 31.8359 12.1888 31.8359Z" fill="#7F8F98"/>
<path d="M34.2987 13.5724L28.4528 7.75731C28.243 7.54853 27.9939 7.38294 27.7198 7.26998C27.4457 7.15703 27.1519 7.09893 26.8553 7.099C26.5586 7.09907 26.2649 7.15731 25.9908 7.27039C25.7167 7.38347 25.4678 7.54918 25.258 7.75806C25.0483 7.96694 24.882 8.21489 24.7685 8.48776C24.655 8.76064 24.5967 9.05309 24.5968 9.34842C24.5969 9.94486 24.835 10.5168 25.2588 10.9385L30.3969 16.052L9.93024 16.094C9.33115 16.094 8.7566 16.3309 8.33299 16.7526C7.90937 17.1743 7.67139 17.7463 7.67139 18.3427C7.67139 18.9391 7.90937 19.511 8.33299 19.9328C8.7566 20.3545 9.33115 20.5914 9.93024 20.5914L30.4797 20.5539L25.2588 25.7514C24.86 26.1779 24.643 26.7418 24.6536 27.3243C24.6642 27.9069 24.9016 28.4626 25.3156 28.8744C25.7297 29.2862 26.2881 29.522 26.8733 29.532C27.4585 29.542 28.0248 29.3255 28.4528 28.9281L34.2942 23.1129C34.9235 22.4865 35.4226 21.7428 35.7632 20.9243C36.1037 20.1058 36.279 19.2286 36.279 18.3427C36.279 17.4568 36.1037 16.5795 35.7632 15.761C35.4226 14.9426 34.9235 14.1989 34.2942 13.5724H34.2987Z" fill="#7F8F98"/>
</g>
<defs>
<clipPath id="clip0_6_1237">
<rect width="36.1416" height="35.9792" fill="white" transform="translate(0.141602 0.354126)"/>
</clipPath>
</defs>
</svg>
